<svg xmlns="http://www.w3.org/2000/svg" xmlns:xlink="http://www.w3.org/1999/xlink" width="256" height="256" viewBox="0 0 256 256">
  <defs>
    <clipPath id="clip-FS_21">
      <rect width="256" height="256"/>
    </clipPath>
  </defs>
  <g id="FS_21" clip-path="url(#clip-FS_21)">
    <rect width="256" height="256" fill="#e8e8e8"/>
    <line id="Line_2" y1="59" x2="59" transform="translate(0.5 0.5)" fill="rgba(0,0,0,0)" stroke="#30343f" stroke-width="1"/>
    <line id="Line_7" y1="59" x2="59" transform="translate(0.5 0.5)" fill="rgba(0,0,0,0)" stroke="#30343f" stroke-width="1"/>
    <g id="Rectangle_27" transform="translate(59)" fill="#fff" stroke="#30343f" stroke-linejoin="round" stroke-width="1">
      <rect width="197" height="197" stroke="none"/>
      <rect x="0.5" y="0.5" width="196" height="196" fill="none"/>
    </g>
    <g id="Rectangle_44" transform="translate(102.404 -90) rotate(43)" fill="#fff" stroke="#30343f" stroke-linejoin="round" stroke-width="1">
      <rect width="330.71" height="26" stroke="none"/>
      <rect x="0.5" y="0.5" width="329.71" height="25" fill="none"/>
    </g>
    <g id="Rectangle_46" transform="translate(137.194 -125.279) rotate(43)" fill="#fff" stroke="#30343f" stroke-linejoin="round" stroke-width="1">
      <rect width="330.71" height="26" stroke="none"/>
      <rect x="0.5" y="0.5" width="329.71" height="25" fill="none"/>
    </g>
    <g id="Rectangle_37" transform="translate(67.404 -54) rotate(43)" fill="#fff" stroke="#30343f" stroke-linejoin="round" stroke-width="1">
      <rect width="330.71" height="26" stroke="none"/>
      <rect x="0.5" y="0.5" width="329.71" height="25" fill="none"/>
    </g>
    <g id="Rectangle_34" transform="translate(32.827 -18) rotate(43)" fill="#fff" stroke="#30343f" stroke-linejoin="round" stroke-width="1">
      <rect width="330.71" height="26" stroke="none"/>
      <rect x="0.5" y="0.5" width="329.71" height="25" fill="none"/>
    </g>
    <g id="Rectangle_45" transform="translate(120.404 -107.279) rotate(43)" fill="#fff" stroke="#30343f" stroke-linejoin="round" stroke-width="1">
      <rect width="330.71" height="26" stroke="none"/>
      <rect x="0.5" y="0.5" width="329.71" height="25" fill="none"/>
    </g>
    <g id="Rectangle_22" transform="translate(35 24)" fill="#cbff4d" stroke="#30343f" stroke-linejoin="round" stroke-width="1">
      <rect width="197" height="197" stroke="none"/>
      <rect x="0.5" y="0.5" width="196" height="196" fill="none"/>
    </g>
    <g id="Rectangle_24" transform="translate(42.478 72.348)" fill="#fff" stroke="#30343f" stroke-linejoin="round" stroke-width="1">
      <rect width="141.135" height="142.505" stroke="none"/>
      <rect x="0.5" y="0.5" width="140.135" height="141.505" fill="none"/>
    </g>
    <g id="Rectangle_25" transform="translate(0 114.826)" fill="#fff" stroke="#30343f" stroke-linejoin="round" stroke-width="1">
      <rect width="142.505" height="141.135" stroke="none"/>
      <rect x="0.5" y="0.5" width="141.505" height="140.135" fill="none"/>
    </g>
    <line id="Line_5" y1="42.413" x2="42.413" transform="translate(0.359 72.708)" fill="rgba(0,0,0,0)" stroke="#30343f" stroke-width="1"/>
    <path id="Path_11" d="M-1.109,42.527,41.478,0h0" transform="translate(142.287 213.473)" fill="rgba(0,0,0,0)" stroke="#30343f" stroke-linejoin="round" stroke-width="1"/>
    <line id="Line_6" y1="42.413" x2="42.413" transform="translate(141.256 72.708)" fill="rgba(0,0,0,0)" stroke="#30343f" stroke-width="1"/>
    <g id="Rectangle_26" transform="translate(0 114.826)" fill="#fff" stroke="#30343f" stroke-linejoin="round" stroke-width="1">
      <rect width="142.505" height="141.135" stroke="none"/>
      <rect x="0.5" y="0.5" width="141.505" height="140.135" fill="none"/>
    </g>
    <g id="Rectangle_41" transform="translate(84.404 -72) rotate(43)" fill="#fff" stroke="#30343f" stroke-linejoin="round" stroke-width="1">
      <rect width="330.71" height="26" stroke="none"/>
      <rect x="0.5" y="0.5" width="329.71" height="25" fill="none"/>
    </g>
    <g id="Rectangle_29" transform="translate(-16.084 -30.69) rotate(43)" fill="#fff" stroke="#30343f" stroke-linejoin="round" stroke-width="1">
      <rect width="441.648" height="26" stroke="none"/>
      <rect x="0.5" y="0.5" width="440.648" height="25" fill="none"/>
    </g>
    <g id="Rectangle_28" transform="translate(-13 72)" fill="#84dd63" stroke="#30343f" stroke-linejoin="round" stroke-width="1">
      <rect width="197" height="197" stroke="none"/>
      <rect x="0.5" y="0.5" width="196" height="196" fill="none"/>
    </g>
    <g id="Rectangle_36" transform="translate(50.404 -35) rotate(43)" fill="#fff" stroke="#30343f" stroke-linejoin="round" stroke-width="1">
      <rect width="330.71" height="26" stroke="none"/>
      <rect x="0.5" y="0.5" width="329.71" height="25" fill="none"/>
    </g>
    <g id="Rectangle_48" transform="translate(-165 -125)" fill="#30343f" stroke="#30343f" stroke-linejoin="round" stroke-width="1">
      <rect width="197" height="197" stroke="none"/>
      <rect x="0.5" y="0.5" width="196" height="196" fill="none"/>
    </g>
    <g id="Rectangle_30" transform="translate(-34.935 -13.715) rotate(43)" fill="#fff" stroke="#30343f" stroke-linejoin="round" stroke-width="1">
      <rect width="422.71" height="26" stroke="none"/>
      <rect x="0.5" y="0.5" width="421.71" height="25" fill="none"/>
    </g>
    <g id="Rectangle_47" transform="translate(131 224)" fill="#30343f" stroke="#30343f" stroke-linejoin="round" stroke-width="1">
      <rect width="197" height="197" stroke="none"/>
      <rect x="0.5" y="0.5" width="196" height="196" fill="none"/>
    </g>
    <path id="Path_13" d="M3131,513.566" transform="translate(-2934 -346)" fill="#fff" stroke="#30343f" stroke-width="1"/>
    <g id="Rectangle_32" transform="translate(-32.866 53.221) rotate(43)" fill="#fff" stroke="#30343f" stroke-linejoin="round" stroke-width="1">
      <rect width="330.71" height="26" stroke="none"/>
      <rect x="0.5" y="0.5" width="329.71" height="25" fill="none"/>
    </g>
    <g id="Rectangle_35" transform="translate(-61 112)" fill="#6baa75" stroke="#30343f" stroke-linejoin="round" stroke-width="1">
      <rect width="197" height="197" stroke="none"/>
      <rect x="0.5" y="0.5" width="196" height="196" fill="none"/>
    </g>
    <g id="Rectangle_31" transform="translate(-15.866 35.221) rotate(43)" fill="#fff" stroke="#30343f" stroke-linejoin="round" stroke-width="1">
      <rect width="330.71" height="26" stroke="none"/>
      <rect x="0.5" y="0.5" width="329.71" height="25" fill="none"/>
    </g>
    <g id="Rectangle_38" transform="translate(-65.866 88.279) rotate(43)" fill="#fff" stroke="#30343f" stroke-linejoin="round" stroke-width="1">
      <rect width="330.71" height="26" stroke="none"/>
      <rect x="0.5" y="0.5" width="329.71" height="25" fill="none"/>
    </g>
    <g id="Rectangle_40" transform="translate(-109 160)" fill="#69747c" stroke="#30343f" stroke-linejoin="round" stroke-width="1">
      <rect width="197" height="197" stroke="none"/>
      <rect x="0.5" y="0.5" width="196" height="196" fill="none"/>
    </g>
    <g id="Rectangle_39" transform="translate(-82.404 106.279) rotate(43)" fill="#fff" stroke="#30343f" stroke-linejoin="round" stroke-width="1">
      <rect width="330.71" height="26" stroke="none"/>
      <rect x="0.5" y="0.5" width="329.71" height="25" fill="none"/>
    </g>
    <g id="Rectangle_42" transform="translate(-99.404 124.279) rotate(43)" fill="#fff" stroke="#30343f" stroke-linejoin="round" stroke-width="1">
      <rect width="330.71" height="26" stroke="none"/>
      <rect x="0.5" y="0.5" width="329.71" height="25" fill="none"/>
    </g>
    <g id="Rectangle_43" transform="translate(-122.404 137.279) rotate(43)" fill="#fff" stroke="#30343f" stroke-linejoin="round" stroke-width="1">
      <rect width="330.71" height="26" stroke="none"/>
      <rect x="0.5" y="0.5" width="329.71" height="25" fill="none"/>
    </g>
    <g id="Rectangle_33" transform="translate(-49.866 71.221) rotate(43)" fill="#fff" stroke="#30343f" stroke-linejoin="round" stroke-width="1">
      <rect width="330.71" height="26" stroke="none"/>
      <rect x="0.5" y="0.5" width="329.71" height="25" fill="none"/>
    </g>
  </g>
</svg>
